<svg version="1.1" xmlns="http://www.w3.org/2000/svg" xmlns:xlink="http://www.w3.org/1999/xlink" width="640" viewBox="-120 -30 710 260">
<defs>
  <style>
  .crystal {
    fill: #020202;
  }
  @media(prefers-color-scheme: dark) {
    .crystal {
      fill: #FDFDFD;
    }
  }
  </style>
</defs>
<g fill="#787878">
  <path d="M8.5482,186.8324v-21.2803h6.7861c1.3071,0,2.4331,0.1289,3.3784,0.3867
    c0.9453,0.2568,1.7227,0.623,2.3315,1.0986c0.6089,0.4746,1.0591,1.0566,1.3516,1.7451c0.292,0.6875,0.438,1.4619,0.438,2.3232
    c0,0.5254-0.0815,1.0303-0.2451,1.5146c-0.1631,0.4854-0.4106,0.9355-0.7427,1.3516c-0.3315,0.416-0.7476,0.7871-1.2471,1.1143
    c-0.5,0.3262-1.0869,0.5938-1.7598,0.8018c1.5542,0.3066,2.7271,0.8662,3.5195,1.6777c0.792,0.8125,1.188,1.8809,1.188,3.208
    c0,0.9004-0.166,1.7227-0.4976,2.4648c-0.332,0.7422-0.8169,1.3809-1.4556,1.916c-0.6382,0.5342-1.4204,0.9482-2.3462,1.2393
    c-0.9258,0.293-1.9824,0.4385-3.1704,0.4385H8.5482z M11.4291,175.0863h3.8018c0.8115,0,1.5146-0.0898,2.1084-0.2676
    c0.5942-0.1777,1.0864-0.4258,1.4775-0.7422c0.3911-0.3174,0.6807-0.7002,0.8687-1.1514c0.188-0.4502,0.2822-0.9424,0.2822-1.4775
    c0-1.2471-0.3765-2.1631-1.1284-2.7471c-0.7524-0.584-1.9209-0.876-3.5049-0.876h-3.9053V175.0863z M11.4291,177.1351v7.4102
    h4.6035c0.8218,0,1.5269-0.0938,2.1162-0.2822c0.5889-0.1875,1.0737-0.4531,1.4551-0.7939
    c0.3809-0.3418,0.6611-0.748,0.8389-1.2178c0.1782-0.4707,0.2676-0.9873,0.2676-1.5518c0-1.0996-0.3887-1.9678-1.1655-2.6064
    c-0.7773-0.6387-1.9531-0.958-3.5273-0.958H11.4291z"/>
  <path d="M33.4364,171.5521c1.0986,0,2.0908,0.1826,2.9771,0.5488s1.6387,0.8867,2.2573,1.5596
    s1.0938,1.4873,1.4258,2.4424c0.3315,0.9561,0.4971,2.0225,0.4971,3.2002c0,1.1885-0.1655,2.2578-0.4971,3.208
    c-0.332,0.9502-0.8071,1.7627-1.4258,2.4355s-1.3711,1.1904-2.2573,1.5518s-1.8784,0.542-2.9771,0.542
    c-1.0991,0-2.0918-0.1807-2.9775-0.542c-0.8862-0.3613-1.6411-0.8789-2.2646-1.5518c-0.624-0.6729-1.104-1.4854-1.4404-2.4355
    c-0.3369-0.9502-0.5049-2.0195-0.5049-3.208c0-1.1777,0.168-2.2441,0.5049-3.2002c0.3364-0.9551,0.8164-1.7695,1.4404-2.4424
    c0.6235-0.6729,1.3784-1.1934,2.2646-1.5596C31.3446,171.7348,32.3373,171.5521,33.4364,171.5521z M33.4364,184.976
    c1.4849,0,2.5933-0.4971,3.3262-1.4922c0.7324-0.9951,1.0991-2.3838,1.0991-4.165c0-1.792-0.3667-3.1885-1.0991-4.1885
    c-0.7329-0.999-1.8413-1.499-3.3262-1.499c-0.7529,0-1.4062,0.1279-1.9604,0.3857c-0.5547,0.2578-1.0171,0.6289-1.3887,1.1133
    c-0.3711,0.4854-0.6484,1.082-0.8315,1.79s-0.2744,1.5068-0.2744,2.3984c0,0.8906,0.0913,1.6875,0.2744,2.3906
    s0.4604,1.2939,0.8315,1.7744c0.3716,0.4805,0.834,0.8486,1.3887,1.1064C32.0302,184.848,32.6835,184.976,33.4364,184.976z"/>
  <path d="M43.8607,186.8324v-15.043h1.5146c0.2871,0,0.4854,0.0547,0.5942,0.1631
    c0.1089,0.1094,0.1831,0.2969,0.2227,0.5645l0.1782,2.3467c0.5146-1.0498,1.1509-1.8691,1.9082-2.458s1.646-0.8838,2.6655-0.8838
    c0.416,0,0.792,0.0469,1.1289,0.1416c0.3364,0.0938,0.6479,0.2246,0.9355,0.3936l-0.3418,1.9746
    c-0.0693,0.248-0.2227,0.3711-0.4604,0.3711c-0.1387,0-0.3516-0.0469-0.6382-0.1406c-0.2876-0.0938-0.6885-0.1416-1.2031-0.1416
    c-0.9209,0-1.6904,0.2676-2.3091,0.8018c-0.6187,0.5352-1.1362,1.3125-1.5518,2.332v9.5781H43.8607z"/>
  <path d="M55.83,186.8324v-15.043h1.5742c0.376,0,0.6138,0.1836,0.7129,0.5498l0.208,1.6328
    c0.6533-0.7227,1.3833-1.3066,2.1904-1.752c0.8066-0.4453,1.7397-0.668,2.7988-0.668c0.8218,0,1.5469,0.1357,2.1758,0.4082
    c0.6284,0.2725,1.1533,0.6582,1.5742,1.1582c0.4204,0.5,0.7397,1.1016,0.9575,1.8037c0.2178,0.7031,0.3267,1.4805,0.3267,2.332
    v9.5781h-2.6431v-9.5781c0-1.1387-0.2598-2.0225-0.7798-2.6504c-0.5195-0.6289-1.314-0.9434-2.3833-0.9434
    c-0.7822,0-1.5122,0.1885-2.1904,0.5645s-1.3047,0.8857-1.8784,1.5293v11.0781H55.83z"/>
  <path d="M89.1234,186.8324h-1.1729c-0.2578,0-0.4653-0.0391-0.624-0.1191c-0.1582-0.0791-0.2622-0.2471-0.3115-0.5049
    l-0.2969-1.3955c-0.3965,0.3564-0.7822,0.6758-1.1587,0.958c-0.376,0.2822-0.772,0.5195-1.188,0.7129
    c-0.4155,0.1924-0.8589,0.3389-1.3291,0.4375s-0.9927,0.1484-1.5664,0.1484c-0.5845,0-1.1313-0.082-1.6411-0.2451
    c-0.5098-0.1641-0.9526-0.4102-1.3291-0.7383c-0.3765-0.3271-0.6758-0.7422-0.8984-1.2441s-0.334-1.0947-0.334-1.7803
    c0-0.5957,0.1636-1.1699,0.4902-1.7217c0.3267-0.5508,0.8535-1.04,1.5815-1.4678c0.7275-0.4268,1.6802-0.7773,2.8584-1.0498
    c1.1782-0.2734,2.6187-0.4102,4.3213-0.4102v-1.1807c0-1.1758-0.25-2.0645-0.75-2.667s-1.2397-0.9043-2.2197-0.9043
    c-0.644,0-1.186,0.082-1.6265,0.2451s-0.8218,0.3467-1.1431,0.5488c-0.3218,0.2031-0.5991,0.3867-0.832,0.5498
    c-0.2324,0.1631-0.4629,0.2451-0.6904,0.2451c-0.1782,0-0.334-0.0469-0.4678-0.1406c-0.1333-0.0947-0.2402-0.2109-0.3193-0.3496
    l-0.4751-0.8467c0.8315-0.8018,1.7275-1.4004,2.688-1.7969c0.96-0.3955,2.0244-0.5938,3.1929-0.5938
    c0.8413,0,1.5889,0.1387,2.2422,0.416s1.2026,0.6631,1.6484,1.1582c0.4453,0.4951,0.7817,1.0938,1.0098,1.7969
    c0.2275,0.7031,0.3413,1.4756,0.3413,2.3164V186.8324z M82.2631,185.2142c0.4648,0,0.8906-0.0469,1.2769-0.1416
    c0.3862-0.0938,0.75-0.2275,1.0918-0.4014c0.3413-0.1729,0.668-0.3828,0.98-0.6309c0.3115-0.2471,0.6162-0.5293,0.9131-0.8467
    v-3.1035c-1.2178,0-2.2524,0.0771-3.1035,0.2314c-0.8516,0.1553-1.5444,0.3564-2.0791,0.6055s-0.9233,0.543-1.1655,0.8809
    c-0.2427,0.3389-0.3638,0.7168-0.3638,1.1357c0,0.3984,0.064,0.7412,0.1929,1.0303c0.1284,0.2891,0.3018,0.5254,0.5195,0.71
    c0.2178,0.1836,0.4756,0.3184,0.7725,0.4033C81.5946,185.1713,81.9164,185.2142,82.2631,185.2142z"/>
  <path d="M93.1327,186.8324v-15.043h1.5742c0.376,0,0.6138,0.1836,0.7129,0.5498l0.208,1.6328
    c0.6533-0.7227,1.3833-1.3066,2.1904-1.752c0.8066-0.4453,1.7397-0.668,2.7988-0.668c0.8218,0,1.5469,0.1357,2.1758,0.4082
    c0.6284,0.2725,1.1533,0.6582,1.5742,1.1582c0.4204,0.5,0.7397,1.1016,0.9575,1.8037c0.2178,0.7031,0.3267,1.4805,0.3267,2.332
    v9.5781h-2.6431v-9.5781c0-1.1387-0.2598-2.0225-0.7798-2.6504c-0.5195-0.6289-1.314-0.9434-2.3833-0.9434
    c-0.7822,0-1.5122,0.1885-2.1904,0.5645s-1.3047,0.8857-1.8784,1.5293v11.0781H93.1327z"/>
  <path d="M120.2343,186.8324c-0.3765,0-0.6143-0.1826-0.7129-0.5498l-0.2378-1.8262
    c-0.6436,0.7822-1.3784,1.4082-2.2051,1.8789c-0.8267,0.4697-1.7744,0.7051-2.8438,0.7051c-0.8613,0-1.6436-0.166-2.3462-0.498
    c-0.7031-0.3311-1.3022-0.8184-1.7969-1.4619c-0.4951-0.6436-0.8765-1.4453-1.1436-2.4062
    c-0.2676-0.96-0.4009-2.0635-0.4009-3.3115c0-1.1084,0.1484-2.1406,0.4453-3.0957c0.2969-0.9561,0.7251-1.7842,1.2847-2.4873
    c0.5591-0.7031,1.2397-1.2549,2.042-1.6562c0.8018-0.4014,1.7124-0.6016,2.7324-0.6016c0.9204,0,1.7075,0.1562,2.3608,0.4678
    c0.6533,0.3125,1.2373,0.75,1.7524,1.3145v-8.3457h2.6431v21.874H120.2343z M115.1107,184.9017
    c0.8613,0,1.6162-0.1982,2.2646-0.5938s1.2451-0.9551,1.7896-1.6777v-7.2773c-0.4854-0.6533-1.0171-1.1104-1.5967-1.373
    c-0.5791-0.2627-1.2202-0.3936-1.9229-0.3936c-1.4058,0-2.4849,0.5-3.2373,1.5s-1.1284,2.4258-1.1284,4.2764
    c0,0.9805,0.084,1.8193,0.2524,2.5176c0.168,0.6973,0.4155,1.2715,0.7422,1.7227c0.3267,0.4502,0.728,0.7793,1.2031,0.9873
    S114.497,184.9017,115.1107,184.9017z"/>
  <path d="M131.9799,186.8324v-15.043h1.5146c0.2871,0,0.4854,0.0547,0.5942,0.1631
    c0.1089,0.1094,0.1831,0.2969,0.2227,0.5645l0.1782,2.3467c0.5146-1.0498,1.1509-1.8691,1.9082-2.458s1.646-0.8838,2.6655-0.8838
    c0.416,0,0.792,0.0469,1.1289,0.1416c0.3364,0.0938,0.6479,0.2246,0.9355,0.3936l-0.3418,1.9746
    c-0.0693,0.248-0.2227,0.3711-0.4604,0.3711c-0.1387,0-0.3516-0.0469-0.6382-0.1406c-0.2876-0.0938-0.6885-0.1416-1.2031-0.1416
    c-0.9209,0-1.6904,0.2676-2.3091,0.8018c-0.6187,0.5352-1.1362,1.3125-1.5518,2.332v9.5781H131.9799z"/>
  <path d="M154.433,186.8324h-1.1729c-0.2578,0-0.4653-0.0391-0.624-0.1191c-0.1582-0.0791-0.2622-0.2471-0.3115-0.5049
    l-0.2969-1.3955c-0.3965,0.3564-0.7822,0.6758-1.1587,0.958c-0.376,0.2822-0.772,0.5195-1.188,0.7129
    c-0.4155,0.1924-0.8589,0.3389-1.3291,0.4375s-0.9927,0.1484-1.5664,0.1484c-0.5845,0-1.1313-0.082-1.6411-0.2451
    c-0.5098-0.1641-0.9526-0.4102-1.3291-0.7383c-0.3765-0.3271-0.6758-0.7422-0.8984-1.2441s-0.334-1.0947-0.334-1.7803
    c0-0.5957,0.1636-1.1699,0.4902-1.7217c0.3267-0.5508,0.8535-1.04,1.5815-1.4678c0.7275-0.4268,1.6802-0.7773,2.8584-1.0498
    c1.1782-0.2734,2.6187-0.4102,4.3213-0.4102v-1.1807c0-1.1758-0.25-2.0645-0.75-2.667s-1.2397-0.9043-2.2197-0.9043
    c-0.644,0-1.186,0.082-1.6265,0.2451s-0.8218,0.3467-1.1431,0.5488c-0.3218,0.2031-0.5991,0.3867-0.832,0.5498
    c-0.2324,0.1631-0.4629,0.2451-0.6904,0.2451c-0.1782,0-0.334-0.0469-0.4678-0.1406c-0.1333-0.0947-0.2402-0.2109-0.3193-0.3496
    l-0.4751-0.8467c0.8315-0.8018,1.7275-1.4004,2.688-1.7969c0.96-0.3955,2.0244-0.5938,3.1929-0.5938
    c0.8413,0,1.5889,0.1387,2.2422,0.416s1.2026,0.6631,1.6484,1.1582c0.4453,0.4951,0.7817,1.0938,1.0098,1.7969
    c0.2275,0.7031,0.3413,1.4756,0.3413,2.3164V186.8324z M147.5727,185.2142c0.4648,0,0.8906-0.0469,1.2769-0.1416
    c0.3862-0.0938,0.75-0.2275,1.0918-0.4014c0.3413-0.1729,0.668-0.3828,0.98-0.6309c0.3115-0.2471,0.6162-0.5293,0.9131-0.8467
    v-3.1035c-1.2178,0-2.2524,0.0771-3.1035,0.2314c-0.8516,0.1553-1.5444,0.3564-2.0791,0.6055s-0.9233,0.543-1.1655,0.8809
    c-0.2427,0.3389-0.3638,0.7168-0.3638,1.1357c0,0.3984,0.064,0.7412,0.1929,1.0303c0.1284,0.2891,0.3018,0.5254,0.5195,0.71
    c0.2178,0.1836,0.4756,0.3184,0.7725,0.4033C146.9042,185.1713,147.226,185.2142,147.5727,185.2142z"/>
  <path d="M161.977,167.0668c0,0.2578-0.0522,0.498-0.1562,0.7207s-0.2427,0.4209-0.4155,0.5938
    c-0.1733,0.1738-0.374,0.3096-0.6016,0.4082c-0.228,0.0996-0.4702,0.1484-0.7275,0.1484c-0.2578,0-0.4976-0.0488-0.7202-0.1484
    c-0.2231-0.0986-0.4209-0.2344-0.5942-0.4082c-0.1733-0.1729-0.3096-0.3711-0.4082-0.5938
    c-0.0991-0.2227-0.1484-0.4629-0.1484-0.7207c0-0.2568,0.0493-0.502,0.1484-0.7344c0.0986-0.2334,0.2349-0.4355,0.4082-0.6094
    c0.1733-0.1729,0.3711-0.3096,0.5942-0.4082c0.2227-0.0986,0.4624-0.1484,0.7202-0.1484c0.2573,0,0.4995,0.0498,0.7275,0.1484
    c0.2275,0.0986,0.4282,0.2354,0.6016,0.4082c0.1729,0.1738,0.3115,0.376,0.4155,0.6094
    C161.9247,166.5648,161.977,166.81,161.977,167.0668z M161.3827,171.7894v15.043h-2.6431v-15.043H161.3827z"/>
  <path d="M174.6586,174.2689c-0.1191,0.2178-0.3022,0.3271-0.5498,0.3271c-0.1484,0-0.3169-0.0547-0.5049-0.1631
    c-0.188-0.1094-0.418-0.2305-0.6904-0.3643s-0.5967-0.2568-0.9727-0.3711c-0.3765-0.1133-0.8218-0.1709-1.3364-0.1709
    c-0.4453,0-0.8467,0.0576-1.2026,0.1709c-0.3564,0.1143-0.6611,0.2695-0.9136,0.4678s-0.4453,0.4287-0.5791,0.6904
    c-0.1338,0.2627-0.2002,0.5469-0.2002,0.8535c0,0.3867,0.1113,0.708,0.334,0.9658s0.5171,0.4805,0.8833,0.668
    c0.3662,0.1885,0.7822,0.3545,1.2476,0.498s0.9429,0.2969,1.4331,0.46c0.4897,0.1631,0.9673,0.3438,1.4331,0.542
    c0.4648,0.1982,0.8809,0.4453,1.2471,0.7422s0.6611,0.6611,0.8838,1.0918s0.334,0.9482,0.334,1.5518
    c0,0.6934-0.124,1.334-0.3711,1.9229c-0.2476,0.5898-0.6138,1.0996-1.0991,1.5303c-0.4849,0.4297-1.0791,0.7695-1.7817,1.0166
    c-0.7031,0.2471-1.5146,0.3711-2.4355,0.3711c-1.0493,0-2-0.1709-2.8511-0.5117c-0.8516-0.3418-1.5742-0.7803-2.168-1.3145
    l0.6235-1.0098c0.0791-0.1289,0.1729-0.2275,0.2822-0.2969c0.1089-0.0693,0.2524-0.1045,0.4307-0.1045s0.3662,0.0693,0.564,0.208
    c0.1982,0.1387,0.4385,0.292,0.7202,0.4609c0.2822,0.168,0.624,0.3213,1.0249,0.46s0.9033,0.208,1.5073,0.208
    c0.5146,0,0.9653-0.0674,1.3511-0.2002c0.3862-0.1338,0.708-0.3145,0.9653-0.542c0.2573-0.2285,0.4478-0.4902,0.5718-0.7871
    c0.1235-0.2979,0.1855-0.6143,0.1855-0.9512c0-0.415-0.1113-0.7588-0.334-1.0312s-0.5176-0.5049-0.8838-0.6982
    s-0.7847-0.3613-1.2544-0.5049c-0.4707-0.1436-0.9507-0.2949-1.4404-0.4531c-0.4902-0.1582-0.9707-0.3389-1.4409-0.542
    s-0.8887-0.458-1.2544-0.7646c-0.3667-0.3066-0.6611-0.6855-0.8838-1.1357c-0.2227-0.4512-0.334-0.998-0.334-1.6416
    c0-0.5742,0.1187-1.126,0.3564-1.6553c0.2373-0.5293,0.584-0.9951,1.0396-1.3965c0.4551-0.4004,1.0146-0.7197,1.6777-0.957
    c0.6631-0.2383,1.4204-0.3564,2.272-0.3564c0.9902,0,1.8789,0.1553,2.6655,0.4678c0.7871,0.3115,1.4678,0.7402,2.042,1.2842
    L174.6586,174.2689z"/>
  <path d="M184.89,171.5521c0.9009,0,1.7324,0.1504,2.4946,0.4521c0.7622,0.3027,1.4204,0.7383,1.9751,1.3076
    c0.5542,0.5693,0.9878,1.2715,1.2993,2.1084c0.312,0.8369,0.4678,1.7891,0.4678,2.8584c0,0.416-0.0444,0.6934-0.1338,0.832
    c-0.0889,0.1387-0.2573,0.208-0.5049,0.208h-10.0088c0.02,0.9502,0.1484,1.7764,0.3862,2.4795s0.5645,1.29,0.98,1.7598
    c0.416,0.4707,0.9106,0.8223,1.4849,1.0547s1.2178,0.3486,1.9307,0.3486c0.6631,0,1.2349-0.0762,1.7153-0.2305
    c0.48-0.1533,0.8931-0.3193,1.2397-0.4971c0.3467-0.1787,0.6362-0.3438,0.8687-0.498c0.2329-0.1533,0.4331-0.2295,0.6016-0.2295
    c0.2178,0,0.3862,0.084,0.5049,0.252l0.7427,0.9658c-0.3267,0.3955-0.7178,0.7402-1.1733,1.0322s-0.9429,0.5322-1.4624,0.7197
    c-0.52,0.1885-1.0571,0.3291-1.6113,0.4229c-0.5547,0.0947-1.104,0.1416-1.6484,0.1416c-1.0396,0-1.9976-0.1758-2.8735-0.5273
    s-1.6333-0.8662-2.272-1.5439c-0.6387-0.6787-1.1362-1.5176-1.4927-2.5176c-0.356-1-0.5342-2.1484-0.5342-3.4453
    c0-1.0488,0.1606-2.0293,0.4824-2.9404c0.3218-0.9102,0.7847-1.7002,1.3887-2.3682c0.6035-0.668,1.3413-1.1934,2.2124-1.5742
    S183.8007,171.5521,184.89,171.5521z M184.9491,173.4975c-1.2769,0-2.2817,0.3682-3.0142,1.1064
    c-0.7329,0.7373-1.188,1.7588-1.3662,3.0664h8.1821c0-0.6143-0.084-1.1758-0.2524-1.6855s-0.4155-0.9502-0.7427-1.3223
    c-0.3267-0.3711-0.7251-0.6582-1.1953-0.8613C186.0902,173.599,185.5531,173.4975,184.9491,173.4975z"/>
  <path d="M205.0854,186.8324c-0.3765,0-0.6143-0.1826-0.7129-0.5498l-0.2378-1.8262
    c-0.6436,0.7822-1.3784,1.4082-2.2051,1.8789c-0.8267,0.4697-1.7744,0.7051-2.8438,0.7051c-0.8613,0-1.6436-0.166-2.3462-0.498
    c-0.7031-0.3311-1.3022-0.8184-1.7969-1.4619c-0.4951-0.6436-0.8765-1.4453-1.1436-2.4062
    c-0.2676-0.96-0.4009-2.0635-0.4009-3.3115c0-1.1084,0.1484-2.1406,0.4453-3.0957c0.2969-0.9561,0.7251-1.7842,1.2847-2.4873
    c0.5591-0.7031,1.2397-1.2549,2.042-1.6562c0.8018-0.4014,1.7124-0.6016,2.7324-0.6016c0.9204,0,1.7075,0.1562,2.3608,0.4678
    c0.6533,0.3125,1.2373,0.75,1.7524,1.3145v-8.3457h2.6431v21.874H205.0854z M199.9618,184.9017
    c0.8613,0,1.6162-0.1982,2.2646-0.5938s1.2451-0.9551,1.7896-1.6777v-7.2773c-0.4854-0.6533-1.0171-1.1104-1.5967-1.373
    c-0.5791-0.2627-1.2202-0.3936-1.9229-0.3936c-1.4058,0-2.4849,0.5-3.2373,1.5s-1.1284,2.4258-1.1284,4.2764
    c0,0.9805,0.084,1.8193,0.2524,2.5176c0.168,0.6973,0.4155,1.2715,0.7422,1.7227c0.3267,0.4502,0.728,0.7793,1.2031,0.9873
    S199.3481,184.9017,199.9618,184.9017z"/>
  <path d="M227.8803,186.8324h-1.1738c-0.2578,0-0.4648-0.0391-0.623-0.1191c-0.1602-0.0791-0.2637-0.2471-0.3125-0.5049
    l-0.2969-1.3955c-0.3965,0.3564-0.7832,0.6758-1.1582,0.958c-0.377,0.2822-0.7734,0.5195-1.1875,0.7129
    c-0.416,0.1924-0.8594,0.3389-1.3301,0.4375s-0.9922,0.1484-1.5664,0.1484c-0.584,0-1.1309-0.082-1.6406-0.2451
    c-0.5098-0.1641-0.9531-0.4102-1.3301-0.7383c-0.375-0.3271-0.6758-0.7422-0.8984-1.2441s-0.334-1.0947-0.334-1.7803
    c0-0.5957,0.1641-1.1699,0.4902-1.7217c0.3262-0.5508,0.8535-1.04,1.582-1.4678c0.7266-0.4268,1.6797-0.7773,2.8594-1.0498
    c1.1777-0.2734,2.6172-0.4102,4.3203-0.4102v-1.1807c0-1.1758-0.25-2.0645-0.75-2.667s-1.2402-0.9043-2.2207-0.9043
    c-0.6426,0-1.1855,0.082-1.625,0.2451c-0.4414,0.1631-0.8223,0.3467-1.1445,0.5488c-0.3203,0.2031-0.5977,0.3867-0.8301,0.5498
    c-0.2344,0.1631-0.4629,0.2451-0.6914,0.2451c-0.1777,0-0.334-0.0469-0.4668-0.1406c-0.1348-0.0947-0.2402-0.2109-0.3203-0.3496
    l-0.4746-0.8467c0.832-0.8018,1.7266-1.4004,2.6875-1.7969c0.9609-0.3955,2.0254-0.5938,3.1934-0.5938
    c0.8398,0,1.5879,0.1387,2.2422,0.416c0.6523,0.2773,1.2031,0.6631,1.6484,1.1582s0.7812,1.0938,1.0098,1.7969
    c0.2266,0.7031,0.3418,1.4756,0.3418,2.3164V186.8324z M221.019,185.2142c0.4648,0,0.8906-0.0469,1.2773-0.1416
    c0.3848-0.0938,0.75-0.2275,1.0918-0.4014c0.3418-0.1729,0.668-0.3828,0.9785-0.6309c0.3125-0.2471,0.6172-0.5293,0.9141-0.8467
    v-3.1035c-1.2168,0-2.252,0.0771-3.1035,0.2314c-0.8516,0.1553-1.5449,0.3564-2.0781,0.6055
    c-0.5352,0.249-0.9238,0.543-1.166,0.8809c-0.2441,0.3389-0.3652,0.7168-0.3652,1.1357c0,0.3984,0.0645,0.7412,0.1934,1.0303
    s0.3027,0.5254,0.5195,0.71c0.2188,0.1836,0.4766,0.3184,0.7734,0.4033C220.351,185.1713,220.6713,185.2142,221.019,185.2142z"/>
  <path d="M236.4472,187.0697c-1.187,0-2.1001-0.3311-2.7388-0.9951c-0.6387-0.6631-0.958-1.6182-0.958-2.8652v-9.207
    h-1.8115c-0.1582,0-0.292-0.0469-0.4014-0.1416c-0.1084-0.0938-0.1631-0.2393-0.1631-0.4375v-1.0547l2.4648-0.3115l0.6094-4.6484
    c0.0195-0.1484,0.084-0.2695,0.1924-0.3643c0.1094-0.0938,0.248-0.1406,0.416-0.1406h1.3369v5.1826h4.3062v1.916h-4.3062v9.0283
    c0,0.6338,0.1533,1.1045,0.46,1.4111c0.3062,0.3066,0.7026,0.46,1.188,0.46c0.2764,0,0.5166-0.0371,0.7197-0.1113
    s0.3789-0.1562,0.5273-0.2451s0.2744-0.1709,0.3789-0.2451c0.1035-0.0742,0.1953-0.1113,0.2744-0.1113
    c0.1387,0,0.2627,0.085,0.3711,0.2529l0.7725,1.2617c-0.4551,0.4258-1.0049,0.7598-1.6484,1.0029
    C237.7939,186.9486,237.1308,187.0697,236.4472,187.0697z"/>
</g>
<path fill="#787878" d="M293.0266,185.993h-2.6754v-6.6887l0,0c0-2.1738-1.7558-4.0132-4.0132-4.0132
  c-2.1738,0-4.0132,1.7558-4.0132,3.9296v1.3377h-2.6754v-1.3377l0,0l0,0l0,0c0-2.1738-1.7558-4.0132-4.0132-4.0132
  c-2.1738,0-4.0132,1.7558-4.0132,4.0132l0,0v1.3377h-2.6754v-13.1265h2.6754v6.6887c1.0869-0.8361,2.5083-1.3377,4.0132-1.3377
  c2.1738,0,4.0968,1.0033,5.351,2.6755c1.2541-1.5886,3.1771-2.6755,5.3509-2.6755c3.6788,0,6.6887,3.0099,6.6887,6.6887l0,0V185.993
  z M293.0266,170.0238h-6.6887l0,0c-1.8394,0-3.4279-0.7525-4.6821-1.923l1.923-1.923c0.7525,0.6689,1.6722,1.0869,2.7591,1.0869
  h6.6887V170.0238z M281.0706,156.73c11.0363,0,19.9824,8.9461,19.9824,19.9824s-8.9461,19.9824-19.9824,19.9824
  s-19.9824-8.9461-19.9824-19.9824S270.0343,156.73,281.0706,156.73 M281.0706,154.0546c-12.4576,0-22.6579,10.1166-22.6579,22.6579
  c0,12.4576,10.1166,22.6579,22.6579,22.6579c12.4576,0,22.6579-10.1166,22.6579-22.6579
  C303.7285,164.2548,293.5283,154.0546,281.0706,154.0546L281.0706,154.0546z M326.2192,171.7795l0.0836,1.6722
  c1.0033-1.2541,2.5083-1.923,4.4312-1.923c1.923,0,3.5116,0.7525,4.264,2.4246c1.0033-1.4213,2.5919-2.4246,4.7657-2.4246
  c3.1771,0,5.0165,1.6722,5.0165,5.4345v9.8658h-2.5919v-9.8658c0-2.5083-1.2541-3.2607-3.1771-3.2607
  c-2.0902,0-3.2607,1.4213-3.5115,3.1771v9.9494h-2.5919v-9.8658c0-2.341-1.2541-3.2607-3.1771-3.2607
  c-1.8394,0-2.9263,0.8361-3.4279,2.1738v10.9527h-2.5919v-15.0495H326.2192z M357.9904,186.829
  c-0.1672-0.3344-0.2508-1.0033-0.3344-1.5885c-1.0033,1.0033-2.4246,1.8394-4.264,1.8394c-3.0935,0-5.1001-1.923-5.1001-4.4312
  c0-3.2607,2.5919-4.9329,6.7723-4.9329h2.5919v-1.1705c0-1.7558-1.0869-2.9263-3.1771-2.9263c-1.923,0-3.2607,1.0869-3.2607,2.341
  h-2.5919c0-2.1738,2.341-4.4312,5.9362-4.4312c3.2607,0,5.6018,1.6722,5.6018,5.0165v7.0231c0,1.0033,0.1672,2.2574,0.5016,3.0935
  v0.2508h-2.6755V186.829z M357.5723,182.6486v-3.0935h-2.1738c-2.9263,0-4.5985,0.9197-4.5985,2.7591
  c0,1.4213,1.0033,2.5919,2.8427,2.5919C355.5657,184.8224,357.0707,183.7355,357.5723,182.6486z M366.602,171.7795l0.0836,1.923
  c1.0869-1.3377,2.5919-2.1738,4.5148-2.1738c2.9263,0,4.7657,1.5049,4.7657,5.4345v9.8658h-2.5919v-9.8658
  c0-2.341-1.0869-3.2607-3.0099-3.2607c-1.6722,0-2.9263,1.0033-3.6788,2.4246v10.7019h-2.5919v-15.0495H366.602z M389.1763,186.829
  c-0.1672-0.3344-0.2508-1.0033-0.3344-1.5885c-1.0033,1.0033-2.4247,1.8394-4.264,1.8394c-3.0935,0-5.1001-1.923-5.1001-4.4312
  c0-3.2607,2.5919-4.9329,6.7723-4.9329h2.5919v-1.1705c0-1.7558-1.0869-2.9263-3.1771-2.9263c-1.923,0-3.2607,1.0869-3.2607,2.341
  h-2.5919c0-2.1738,2.341-4.4312,5.9362-4.4312c3.2607,0,5.6017,1.6722,5.6017,5.0165v7.0231c0,1.0033,0.1672,2.2574,0.5016,3.0935
  v0.2508h-2.6755V186.829z M388.7582,182.6486v-3.0935h-2.1738c-2.9263,0-4.5984,0.9197-4.5984,2.7591
  c0,1.4213,1.0033,2.5919,2.8427,2.5919C386.7516,184.8224,388.173,183.7355,388.7582,182.6486z M400.6306,180.224
  c-3.3443-0.6689-5.4345-1.8394-5.4345-4.3476c0-2.341,2.1738-4.4312,5.5182-4.4312c3.5952,0,5.769,2.0902,5.769,4.6821h-2.5919
  c0-1.2541-1.0869-2.5919-3.1771-2.5919c-2.1738,0-3.0099,1.0869-3.0099,2.1738c0,1.1705,0.5853,1.6722,3.5115,2.341
  c3.6788,0.8361,5.351,2.0902,5.351,4.5148c0,2.5919-2.2574,4.4312-5.769,4.4312c-4.0132,0-6.187-2.4246-6.187-4.9329h2.5919
  c0.0836,2.0902,2.0066,2.8427,3.5952,2.8427c2.0902,0,3.2607-0.9197,3.2607-2.1738
  C404.0586,181.7289,403.5569,180.8929,400.6306,180.224z M411.6669,183.9028c1.0869,0,1.5885,0.6689,1.5885,1.5886
  c0,0.8361-0.5852,1.5049-1.5885,1.5049s-1.5886-0.6689-1.5886-1.5049C410.0784,184.5716,410.58,183.9028,411.6669,183.9028z
   M420.9474,168.1844v3.5952h2.8427v2.0066h-2.8427v9.2805c0,1.5886,0.8361,1.8394,1.6722,1.8394
  c0.418,0,0.9197-0.0836,1.2541-0.1672v2.0902c-0.418,0.0836-1.0033,0.2508-2.0066,0.2508c-1.923,0-3.5116-1.0033-3.5116-4.0132
  v-9.2805h-2.7591v-2.0066h2.7591v-3.5952H420.9474z M426.1312,179.8059v-0.5853c0-4.9329,3.1771-7.692,6.6051-7.692
  c4.264,0,6.187,3.1771,6.187,7.3575v1.1705H428.723c0.0836,2.7591,1.7558,4.9329,4.4312,4.9329
  c1.8394,0,3.0099-0.8361,3.9296-2.0066l1.5886,1.2541c-0.9197,1.505-2.6755,2.9263-5.6854,2.9263
  C428.8066,187.0799,426.1312,184.07,426.1312,179.8059z M428.8066,177.9666h7.5247v-0.1672
  c-0.0836-2.0066-1.0033-4.0968-3.5952-4.0968C430.646,173.6189,429.1411,175.1239,428.8066,177.9666z M451.3809,182.0634h2.4247
  c-0.1672,2.6755-2.7591,5.0165-5.9362,5.0165c-4.5148,0-6.6887-3.4279-6.6887-7.5247v-0.5853c0-4.0132,2.1738-7.5247,6.6887-7.5247
  c3.5116,0,5.8526,2.341,6.0198,5.4346h-2.4247c-0.1672-1.8394-1.5049-3.3443-3.5952-3.3443c-3.1771,0-4.0968,2.7591-4.0968,5.3509
  v0.5853c0,2.6755,0.9197,5.4345,4.0968,5.4345C449.7087,184.9897,451.2137,183.7355,451.3809,182.0634z M459.2401,173.6189
  c1.0869-1.3377,2.5919-2.0902,4.4312-2.0902c2.9263,0,4.7657,1.5049,4.7657,5.4345v9.8658h-2.5919v-9.8658
  c0-2.341-1.0869-3.2607-3.0099-3.2607c-1.6722,0-2.9263,1.0033-3.6788,2.4246v10.7019h-2.5919v-21.3201h2.5919v8.11H459.2401z"/>
<g class="crystal">
  <path d="M166.9483,90.4383c-4.744,0-7.8521-1.4723-9.6516-4.2532
    c-1.6359-2.9445-2.6174-8.1793-2.6174-15.8678s0.8179-13.0869,2.6174-15.8678c1.7994-2.9445,4.9076-4.2532,9.6516-4.2532
    c5.3983,0,10.4695,0.1636,15.2135,0.4908l0.9815-7.8521c-4.5804-1.1451-9.9787-1.7994-16.195-1.7994
    c-8.5065,0-14.3956,2.1266-17.8309,6.5434c-3.4353,4.4168-5.2347,11.9418-5.2347,22.5748s1.6358,18.3216,5.2347,22.5749
    c3.4353,4.4168,9.3244,6.5434,17.8309,6.5434c7.0342,0,12.7597-0.6544,17.3401-2.1266l-0.9815-7.6885
    C179.3808,90.1111,173.8189,90.4383,166.9483,90.4383z"/>
  <path d="M227.3114,75.0612c-1.4723-1.3087-2.9445-2.2902-4.5804-2.6174v-0.4908
    c3.7625-0.4908,6.5434-1.963,8.1793-4.2532c1.6358-2.2902,2.4538-5.7255,2.4538-9.9787c0-6.2163-1.4723-10.6331-4.4168-12.9233
    c-2.9445-2.2902-8.0157-3.5989-15.2135-3.5989c-8.8336,0-15.7043,0.1636-20.6118,0.6543v56.4371h10.1423V75.7156h10.1423
    c3.2717,0,5.5619,1.6359,6.5434,5.0712l4.5804,17.5037h10.9603l-5.0712-17.6673
    C229.7652,78.333,228.7837,76.3699,227.3114,75.0612z M213.4066,67.3727h-10.1423V49.7054h10.1423
    c3.5989,0,6.2163,0.6543,7.5249,1.7994c1.3087,1.1451,1.963,3.4353,1.963,7.0342c0,3.4353-0.6543,5.7255-1.963,7.0342
    C219.6229,66.7184,217.1691,67.3727,213.4066,67.3727z"/>
  <polygon points="378.3012,42.0169 333.3151,42.0169 333.3151,50.687 350.4916,50.687 350.4916,98.454
    360.7975,98.454 360.7975,50.687 378.3012,50.687 		"/>
  <path d="M406.2743,42.0169h-9.9787c-1.963,0-3.1081,0.9815-3.7625,2.781L375.6838,98.454h10.4695
    l4.5804-16.0314h20.939l4.5804,16.0314h10.4695l-17.0129-53.6562C409.5461,42.8348,408.2374,42.0169,406.2743,42.0169z
      M393.3511,74.0797l5.5619-19.4667l1.3087-4.744h2.1266c0,0.3272,0.4907,1.963,1.3087,4.744l5.7255,19.4667H393.3511z"/>
  <path d="M468.1098,89.9476h-19.6303c-1.7995,0-3.1081-0.3272-3.7625-0.9815
    c-0.6543-0.6543-1.1451-1.963-1.1451-3.5989V42.0169h-10.3059v44.8225c0,7.8521,4.2532,11.7782,12.7597,11.7782
    c9.6516,0,17.0129-0.3272,22.4113-0.6543L468.1098,89.9476z"/>
  <path d="M263.9547,63.9374c-0.3272,0.8179-1.1451,3.1081-2.2902,6.8706h-0.6544
    c-1.1451-3.5989-1.963-5.8891-2.2902-6.8706L248.414,42.0169h-10.7967l18.4852,37.2976v19.3031h10.3059V79.3145l18.4852-37.2976
    h-10.6331L263.9547,63.9374z"/>
  <path d="M316.3022,67.2091l-10.7967-3.4353c-2.4538-0.8179-4.0896-1.6359-4.9076-2.6174
    c-0.9815-0.9815-1.3087-2.6174-1.3087-4.9076c0-2.781,0.6543-4.5804,1.963-5.3983c1.3087-0.6543,3.7625-1.1451,7.525-1.1451
    c4.9076,0,10.6331,0.1636,16.8493,0.3272l0.6544-7.1978c-4.9076-1.3087-10.7967-1.963-17.6673-1.963
    c-7.1978,0-12.2689,0.9815-15.0499,2.9445c-2.9445,1.963-4.2532,6.0527-4.2532,12.2689c0,4.2532,0.8179,7.8521,2.6174,10.4695
    c1.7994,2.6174,4.5804,4.5804,8.67,5.8891l11.451,3.5989c2.2902,0.6543,3.926,1.4723,4.744,2.4538
    c0.8179,0.9815,1.3087,2.6174,1.3087,5.0712c0,2.781-0.6543,4.744-1.7994,5.5619c-1.3087,0.8179-3.7625,1.3087-7.525,1.3087
    c-2.4538,0-8.3429-0.1636-17.8308-0.3272l-0.6543,7.5249c6.0527,1.1451,12.1053,1.7994,18.3216,1.7994
    c7.525,0,12.7597-1.1451,15.5406-3.2717c2.9445-2.1266,4.4168-6.3799,4.4168-12.5961c0-4.2532-0.8179-7.8521-2.6174-10.4695
    C323.6635,70.4808,320.719,68.5178,316.3022,67.2091z"/>
  <path d="M114.2736,72.2803l-40.8965,40.7329c-0.1636,0.1636-0.3272,0.1636-0.6544,0.1636
    L16.9401,98.2905c-0.1636,0-0.3272-0.1636-0.4908-0.4908L1.563,42.1805c0-0.1636,0-0.4908,0.1636-0.6543L42.623,0.7933
    c0.1636-0.1636,0.3272-0.1636,0.6543-0.1636l55.7828,15.0499c0.1636,0,0.3272,0.1636,0.4908,0.4908l14.8863,55.6192
    C114.6008,71.9531,114.4372,72.1167,114.2736,72.2803z M59.636,27.9485L4.8347,42.6713c-0.1636,0-0.1636,0.1636,0,0.3272
    L44.9132,83.077c0.1636,0.1636,0.1636,0,0.3272,0l14.7227-54.6377C59.7995,27.9485,59.636,27.9485,59.636,27.9485z"/>
</g>
</svg>
