<svg id="Layer_1" data-name="Layer 1" xmlns="http://www.w3.org/2000/svg" viewBox="0 0 99.46 37.8"><defs><style>.cls-1{fill:#999;}</style></defs><title>born-and-raised</title><path class="cls-1" d="M243.82,416.52h2.33a4.4,4.4,0,0,1,2.38.49,1.74,1.74,0,0,1,.73,1.55,1.8,1.8,0,0,1-.41,1.21,2,2,0,0,1-1.19.62v0.06a1.91,1.91,0,0,1,1.88,2,2.12,2.12,0,0,1-.75,1.73,3.18,3.18,0,0,1-2.09.62h-2.88v-8.26Zm1,3.54h1.58a2.58,2.58,0,0,0,1.46-.32,1.23,1.23,0,0,0,.45-1.08,1.09,1.09,0,0,0-.5-1,3.11,3.11,0,0,0-1.58-.31h-1.41v2.71Zm0,0.81V424h1.72a2.45,2.45,0,0,0,1.5-.39,1.43,1.43,0,0,0,.51-1.21,1.28,1.28,0,0,0-.52-1.13,2.76,2.76,0,0,0-1.57-.36h-1.64Z" transform="translate(-242.64 -415.99)"/><path class="cls-1" d="M256.52,421.68a3.42,3.42,0,0,1-.76,2.36,2.69,2.69,0,0,1-2.11.85,2.79,2.79,0,0,1-1.47-.39,2.57,2.57,0,0,1-1-1.12,3.9,3.9,0,0,1-.35-1.71,3.41,3.41,0,0,1,.76-2.36,2.68,2.68,0,0,1,2.1-.84,2.62,2.62,0,0,1,2.06.86A3.4,3.4,0,0,1,256.52,421.68Zm-4.72,0a2.94,2.94,0,0,0,.47,1.81,1.88,1.88,0,0,0,2.79,0,2.92,2.92,0,0,0,.48-1.81,2.88,2.88,0,0,0-.48-1.79,1.68,1.68,0,0,0-1.41-.61,1.65,1.65,0,0,0-1.39.6A2.91,2.91,0,0,0,251.8,421.68Z" transform="translate(-242.64 -415.99)"/><path class="cls-1" d="M261,418.48a3.67,3.67,0,0,1,.74.07l-0.13.87a3.19,3.19,0,0,0-.68-0.08,1.65,1.65,0,0,0-1.29.61,2.22,2.22,0,0,0-.53,1.52v3.32h-0.94v-6.19h0.77l0.11,1.15h0a2.72,2.72,0,0,1,.83-0.93A1.87,1.87,0,0,1,261,418.48Z" transform="translate(-242.64 -415.99)"/><path class="cls-1" d="M267.12,424.78v-4a1.62,1.62,0,0,0-.34-1.13,1.4,1.4,0,0,0-1.08-.37,1.78,1.78,0,0,0-1.42.53,2.65,2.65,0,0,0-.45,1.73v3.25h-0.94v-6.19h0.76l0.15,0.85h0a1.91,1.91,0,0,1,.81-0.71,2.62,2.62,0,0,1,1.16-.25,2.35,2.35,0,0,1,1.68.54,2.3,2.3,0,0,1,.56,1.73v4h-0.94Z" transform="translate(-242.64 -415.99)"/><path class="cls-1" d="M276.8,424.78l-0.19-.88h0a2.61,2.61,0,0,1-.92.79,2.82,2.82,0,0,1-1.15.21,2.07,2.07,0,0,1-1.44-.47,1.73,1.73,0,0,1-.52-1.35q0-1.88,3-2l1.05,0v-0.38a1.57,1.57,0,0,0-.31-1.08,1.29,1.29,0,0,0-1-.35,4.09,4.09,0,0,0-1.75.47l-0.29-.72a4.41,4.41,0,0,1,1-.39,4.34,4.34,0,0,1,1.09-.14A2.36,2.36,0,0,1,277,419a2.05,2.05,0,0,1,.53,1.58v4.23H276.8Zm-2.12-.66a1.9,1.9,0,0,0,1.38-.48,1.78,1.78,0,0,0,.5-1.34v-0.56l-0.94,0a3.41,3.41,0,0,0-1.61.35,1,1,0,0,0-.49,1,1,1,0,0,0,.31.77A1.28,1.28,0,0,0,274.68,424.12Z" transform="translate(-242.64 -415.99)"/><path class="cls-1" d="M283.67,424.78v-4a1.62,1.62,0,0,0-.34-1.13,1.4,1.4,0,0,0-1.08-.37,1.78,1.78,0,0,0-1.42.53,2.65,2.65,0,0,0-.45,1.73v3.25h-0.94v-6.19h0.76l0.15,0.85h0a1.91,1.91,0,0,1,.81-0.71,2.62,2.62,0,0,1,1.16-.25A2.35,2.35,0,0,1,284,419a2.3,2.3,0,0,1,.56,1.73v4h-0.94Z" transform="translate(-242.64 -415.99)"/><path class="cls-1" d="M290.74,424h-0.05a2.2,2.2,0,0,1-1.94.94,2.3,2.3,0,0,1-1.89-.83,3.66,3.66,0,0,1-.68-2.36,3.72,3.72,0,0,1,.68-2.38,2.28,2.28,0,0,1,1.89-.85,2.25,2.25,0,0,1,1.93.92h0.07l0-.45,0-.44V416h0.94v8.79h-0.76Zm-1.88.16a1.71,1.71,0,0,0,1.39-.52,2.64,2.64,0,0,0,.43-1.69v-0.2a3.11,3.11,0,0,0-.44-1.88,1.66,1.66,0,0,0-1.4-.56,1.44,1.44,0,0,0-1.26.64,3.19,3.19,0,0,0-.44,1.81,3.06,3.06,0,0,0,.44,1.79A1.47,1.47,0,0,0,288.87,424.11Z" transform="translate(-242.64 -415.99)"/><path class="cls-1" d="M299.45,418.48a3.67,3.67,0,0,1,.74.07l-0.13.87a3.19,3.19,0,0,0-.68-0.08,1.65,1.65,0,0,0-1.29.61,2.22,2.22,0,0,0-.53,1.52v3.32h-0.94v-6.19h0.77l0.11,1.15h0a2.72,2.72,0,0,1,.83-0.93A1.87,1.87,0,0,1,299.45,418.48Z" transform="translate(-242.64 -415.99)"/><path class="cls-1" d="M305.16,424.78L305,423.9h0a2.61,2.61,0,0,1-.92.79,2.82,2.82,0,0,1-1.15.21,2.07,2.07,0,0,1-1.44-.47,1.73,1.73,0,0,1-.52-1.35q0-1.88,3-2l1.05,0v-0.38a1.57,1.57,0,0,0-.31-1.08,1.29,1.29,0,0,0-1-.35,4.09,4.09,0,0,0-1.75.47l-0.29-.72a4.41,4.41,0,0,1,1-.39,4.34,4.34,0,0,1,1.09-.14,2.36,2.36,0,0,1,1.64.49,2.05,2.05,0,0,1,.53,1.58v4.23h-0.69Zm-2.12-.66a1.9,1.9,0,0,0,1.38-.48,1.78,1.78,0,0,0,.5-1.34v-0.56l-0.94,0a3.41,3.41,0,0,0-1.61.35,1,1,0,0,0-.49,1,1,1,0,0,0,.31.77A1.28,1.28,0,0,0,303,424.12Z" transform="translate(-242.64 -415.99)"/><path class="cls-1" d="M307.7,416.91a0.62,0.62,0,0,1,.16-0.47,0.59,0.59,0,0,1,.79,0,0.61,0.61,0,0,1,.16.47,0.62,0.62,0,0,1-.16.47,0.57,0.57,0,0,1-.79,0A0.63,0.63,0,0,1,307.7,416.91Zm1,7.87h-0.94v-6.19h0.94v6.19Z" transform="translate(-242.64 -415.99)"/><path class="cls-1" d="M314.7,423.09a1.55,1.55,0,0,1-.64,1.33,3,3,0,0,1-1.81.47,3.93,3.93,0,0,1-1.92-.39v-0.87a4.65,4.65,0,0,0,1,.36,4,4,0,0,0,1,.13,2.24,2.24,0,0,0,1.13-.23,0.81,0.81,0,0,0,.08-1.33,4.93,4.93,0,0,0-1.22-.61,6.63,6.63,0,0,1-1.23-.56,1.68,1.68,0,0,1-.54-0.55,1.42,1.42,0,0,1-.18-0.73,1.39,1.39,0,0,1,.62-1.19,2.87,2.87,0,0,1,1.69-.44,4.94,4.94,0,0,1,2,.41l-0.33.76a4.49,4.49,0,0,0-1.69-.38,1.94,1.94,0,0,0-1,.21,0.65,0.65,0,0,0-.34.58,0.7,0.7,0,0,0,.13.42,1.25,1.25,0,0,0,.41.33,9.15,9.15,0,0,0,1.08.46,4.05,4.05,0,0,1,1.49.81A1.42,1.42,0,0,1,314.7,423.09Z" transform="translate(-242.64 -415.99)"/><path class="cls-1" d="M318.85,424.9a2.84,2.84,0,0,1-2.17-.84,3.24,3.24,0,0,1-.79-2.32,3.59,3.59,0,0,1,.74-2.38,2.45,2.45,0,0,1,2-.88,2.34,2.34,0,0,1,1.84.77,2.93,2.93,0,0,1,.68,2v0.59h-4.27a2.45,2.45,0,0,0,.55,1.66,1.91,1.91,0,0,0,1.47.56,5,5,0,0,0,2-.42v0.84a5,5,0,0,1-.94.31A5.29,5.29,0,0,1,318.85,424.9Zm-0.25-5.63a1.53,1.53,0,0,0-1.19.49,2.24,2.24,0,0,0-.52,1.34h3.24a2.06,2.06,0,0,0-.4-1.36A1.39,1.39,0,0,0,318.59,419.26Z" transform="translate(-242.64 -415.99)"/><path class="cls-1" d="M326.94,424h-0.05a2.2,2.2,0,0,1-1.94.94,2.3,2.3,0,0,1-1.89-.83,3.66,3.66,0,0,1-.68-2.36,3.72,3.72,0,0,1,.68-2.38,2.28,2.28,0,0,1,1.89-.85,2.25,2.25,0,0,1,1.93.92h0.07l0-.45,0-.44V416h0.94v8.79h-0.76Zm-1.88.16a1.71,1.71,0,0,0,1.39-.52,2.64,2.64,0,0,0,.43-1.69v-0.2a3.11,3.11,0,0,0-.44-1.88,1.66,1.66,0,0,0-1.4-.56,1.44,1.44,0,0,0-1.26.64,3.19,3.19,0,0,0-.44,1.81,3.06,3.06,0,0,0,.44,1.79A1.47,1.47,0,0,0,325.06,424.11Z" transform="translate(-242.64 -415.99)"/><path class="cls-1" d="M336.63,424.78l-0.19-.88h0a2.61,2.61,0,0,1-.92.79,2.82,2.82,0,0,1-1.15.21,2.07,2.07,0,0,1-1.44-.47,1.73,1.73,0,0,1-.52-1.35q0-1.88,3-2l1.05,0v-0.38a1.57,1.57,0,0,0-.31-1.08,1.29,1.29,0,0,0-1-.35,4.09,4.09,0,0,0-1.75.47L333,419a4.41,4.41,0,0,1,1-.39,4.34,4.34,0,0,1,1.09-.14,2.36,2.36,0,0,1,1.64.49,2.05,2.05,0,0,1,.53,1.58v4.23h-0.69Zm-2.12-.66a1.9,1.9,0,0,0,1.38-.48,1.78,1.78,0,0,0,.5-1.34v-0.56l-0.94,0a3.41,3.41,0,0,0-1.61.35,1,1,0,0,0-.49,1,1,1,0,0,0,.31.77A1.28,1.28,0,0,0,334.51,424.12Z" transform="translate(-242.64 -415.99)"/><path class="cls-1" d="M341.25,424.12a3.06,3.06,0,0,0,.48,0l0.37-.08v0.72a1.71,1.71,0,0,1-.45.12,3.37,3.37,0,0,1-.53,0,1.63,1.63,0,0,1-1.8-1.89v-3.68h-0.89v-0.45l0.89-.39,0.4-1.32h0.54v1.44h1.8v0.73h-1.8V423a1.25,1.25,0,0,0,.27.86A0.92,0.92,0,0,0,341.25,424.12Z" transform="translate(-242.64 -415.99)"/><path class="cls-1" d="M323.62,439.34a8,8,0,1,0,0,12.92v1.53h3.29v-16h-3.29v1.53Zm-4.7,11.16a4.7,4.7,0,0,1,0-9.4h0A4.7,4.7,0,1,1,318.92,450.5Zm-32.85-11.16a8,8,0,1,0,0,12.92v1.53h3.29v-16h-3.29v1.53Zm-4.7,11.16a4.7,4.7,0,0,1,0-9.4h0A4.7,4.7,0,1,1,281.37,450.5Zm19.5-12.69a8,8,0,0,0-4.7,1.53v-1.53h-3.29l-0.05,10.81h3.29l0.05-2.82a4.7,4.7,0,1,1,9.4,0v8h3.29v-8A8,8,0,0,0,300.87,437.81Zm-37.09-6.12a4.69,4.69,0,0,1-3.32-1.38l-2.33,2.32a8,8,0,0,0,5.65,2.34H342.1V431.7H263.78Zm-0.46,6.12A8,8,0,0,0,257,441v0a8,8,0,0,0-11-1.61v-8.29h-3.29v17.56h3.29V445.8a4.7,4.7,0,0,1,9.4,0v2.82h3.29V445.8a4.7,4.7,0,1,1,9.4,0v8h3.29v-8A8,8,0,0,0,263.32,437.81Zm70.33,8a4.7,4.7,0,0,1-4.7,4.7v3.29a8,8,0,0,0,8-8,4.7,4.7,0,0,1,4.7-4.7v-3.29A8,8,0,0,0,333.65,445.8Z" transform="translate(-242.64 -415.99)"/></svg>