<?xml version="1.0" encoding="utf-8"?>
<!-- Generator: Adobe Illustrator 19.0.0, SVG Export Plug-In . SVG Version: 6.00 Build 0)  -->
<!DOCTYPE svg PUBLIC "-//W3C//DTD SVG 1.1//EN" "http://www.w3.org/Graphics/SVG/1.1/DTD/svg11.dtd">
<svg version="1.1" id="Layer_1" xmlns="http://www.w3.org/2000/svg" xmlns:xlink="http://www.w3.org/1999/xlink" x="0px" y="0px"
	 viewBox="0 0 341.8 137.7" enable-background="new 0 0 341.8 137.7" xml:space="preserve">
<g id="XMLID_80_">
	<g id="XMLID_84_">
		<path id="XMLID_95_" fill="#010101" d="M128.5,89.4c-2.9,0-4.8-0.9-5.9-2.6c-1-1.8-1.6-5-1.6-9.7c0-4.7,0.5-8,1.6-9.7
			c1.1-1.8,3-2.6,5.9-2.6c3.3,0,6.4,0.1,9.3,0.3l0.6-4.8c-2.8-0.7-6.1-1.1-9.9-1.1c-5.2,0-8.8,1.3-10.9,4c-2.1,2.7-3.2,7.3-3.2,13.8
			s1,11.2,3.2,13.8c2.1,2.7,5.7,4,10.9,4c4.3,0,7.8-0.4,10.6-1.3l-0.6-4.7C136.1,89.2,132.7,89.4,128.5,89.4z"/>
		<path id="XMLID_92_" fill="#010101" d="M165.4,80c-0.9-0.8-1.8-1.4-2.8-1.6v-0.3c2.3-0.3,4-1.2,5-2.6s1.5-3.5,1.5-6.1
			c0-3.8-0.9-6.5-2.7-7.9c-1.8-1.4-4.9-2.2-9.3-2.2c-5.4,0-9.6,0.1-12.6,0.4v34.5h6.2V80.4l6.2,0c2,0,3.4,1,4,3.1l2.8,10.7h6.7
			l-3.1-10.8C166.9,82,166.3,80.8,165.4,80z M156.9,75.3h-6.2V64.5h6.2c2.2,0,3.8,0.4,4.6,1.1c0.8,0.7,1.2,2.1,1.2,4.3
			c0,2.1-0.4,3.5-1.2,4.3C160.7,74.9,159.2,75.3,156.9,75.3z"/>
		<polygon id="XMLID_91_" fill="#010101" points="257.7,59.8 230.2,59.8 230.2,65.1 240.7,65.1 240.7,94.3 247,94.3 247,65.1 
			257.7,65.1 		"/>
		<path id="XMLID_88_" fill="#010101" d="M274.8,59.8h-6.1c-1.2,0-1.9,0.6-2.3,1.7l-10.3,32.8h6.4l2.8-9.8h12.8l2.8,9.8h6.4
			l-10.4-32.8C276.8,60.3,276,59.8,274.8,59.8z M266.9,79.4l3.4-11.9l0.8-2.9h1.3c0,0.2,0.3,1.2,0.8,2.9l3.5,11.9H266.9z"/>
		<path id="XMLID_87_" fill="#010101" d="M312.6,89.1h-12c-1.1,0-1.9-0.2-2.3-0.6c-0.4-0.4-0.7-1.2-0.7-2.2V59.8h-6.3v27.4
			c0,4.8,2.6,7.2,7.8,7.2c5.9,0,10.4-0.2,13.7-0.4L312.6,89.1z"/>
		<path id="XMLID_86_" fill="#010101" d="M187.8,73.2c-0.2,0.5-0.7,1.9-1.4,4.2H186c-0.7-2.2-1.2-3.6-1.4-4.2l-6.3-13.4h-6.6
			l11.3,22.8v11.8h6.3V82.6l11.3-22.8h-6.5L187.8,73.2z"/>
		<path id="XMLID_85_" fill="#010101" d="M219.8,75.2l-6.6-2.1c-1.5-0.5-2.5-1-3-1.6c-0.6-0.6-0.8-1.6-0.8-3c0-1.7,0.4-2.8,1.2-3.3
			c0.8-0.4,2.3-0.7,4.6-0.7c3,0,6.5,0.1,10.3,0.2l0.4-4.4c-3-0.8-6.6-1.2-10.8-1.2c-4.4,0-7.5,0.6-9.2,1.8c-1.8,1.2-2.6,3.7-2.6,7.5
			c0,2.6,0.5,4.8,1.6,6.4s2.8,2.8,5.3,3.6l7,2.2c1.4,0.4,2.4,0.9,2.9,1.5c0.5,0.6,0.8,1.6,0.8,3.1c0,1.7-0.4,2.9-1.1,3.4
			c-0.8,0.5-2.3,0.8-4.6,0.8c-1.5,0-5.1-0.1-10.9-0.2l-0.4,4.6c3.7,0.7,7.4,1.1,11.2,1.1c4.6,0,7.8-0.7,9.5-2
			c1.8-1.3,2.7-3.9,2.7-7.7c0-2.6-0.5-4.8-1.6-6.4C224.3,77.2,222.5,76,219.8,75.2z"/>
	</g>
	<path id="XMLID_81_" fill="#010101" d="M96.3,78.3l-25,24.9c-0.1,0.1-0.2,0.1-0.4,0.1l-34.1-9.1c-0.1,0-0.2-0.1-0.3-0.3l-9.1-34
		c0-0.1,0-0.3,0.1-0.4l25-24.9c0.1-0.1,0.2-0.1,0.4-0.1L87,43.7c0.1,0,0.2,0.1,0.3,0.3l9.1,34C96.5,78.1,96.4,78.2,96.3,78.3z
		 M62.9,51.2l-33.5,9c-0.1,0-0.1,0.1,0,0.2l24.5,24.5c0.1,0.1,0.1,0,0.2,0l9-33.4C63,51.2,62.9,51.2,62.9,51.2z"/>
</g>
</svg>
