<?xml version="1.0" encoding="utf-8"?>
<!-- Generator: Adobe Illustrator 19.0.1, SVG Export Plug-In . SVG Version: 6.00 Build 0)  -->
<!DOCTYPE svg PUBLIC "-//W3C//DTD SVG 1.1//EN" "http://www.w3.org/Graphics/SVG/1.1/DTD/svg11.dtd">
<svg version="1.1" id="Layer_1" xmlns="http://www.w3.org/2000/svg" xmlns:xlink="http://www.w3.org/1999/xlink" x="0px" y="0px"
	 viewBox="-134 328.3 137.7 137.7" style="enable-background:new -134 328.3 137.7 137.7;" xml:space="preserve">
<style type="text/css">
	.st0{fill:#010101;}
</style>
<g id="XMLID_80_">
	<path id="XMLID_81_" class="st0" d="M-15.6,410.7l-36,35.9c-0.1,0.1-0.3,0.1-0.6,0.1l-49.1-13.1c-0.1,0-0.3-0.1-0.4-0.4l-13.1-49
		c0-0.1,0-0.4,0.1-0.6l36-35.9c0.1-0.1,0.3-0.1,0.6-0.1l49.1,13.2c0.1,0,0.3,0.1,0.4,0.4l13.1,49C-15.3,410.4-15.4,410.6-15.6,410.7
		z M-63.7,371.7l-48.2,13c-0.1,0-0.1,0.1,0,0.3l35.3,35.3c0.1,0.1,0.1,0,0.3,0l13-48.1C-63.5,371.7-63.7,371.7-63.7,371.7z"/>
</g>
</svg>
