<?xml version="1.0" encoding="UTF-8"?>
<!-- Generator: Adobe Illustrator 21.0.0, SVG Export Plug-In . SVG Version: 6.00 Build 0)  -->
<svg version="1.1" id="Layer_1" xmlns="http://www.w3.org/2000/svg" xmlns:xlink="http://www.w3.org/1999/xlink" x="0px" y="0px" viewBox="0 0 340.4 137.7" style="enable-background:new 0 0 340.4 137.7;" xml:space="preserve">
<style type="text/css">
	.st0{fill:none;}
</style>
<g>
	<path d="M138.5,88.9l0.6,4.7c-2.8,0.9-6.3,1.3-10.6,1.3c-5.2,0-8.8-1.3-10.9-4c-2.1-2.7-3.2-7.3-3.2-13.8s1-11.2,3.2-13.8   c2.1-2.7,5.7-4,10.9-4c3.8,0,7.1,0.4,9.9,1.1l-0.6,4.8c-2.9-0.2-6-0.3-9.3-0.3c-2.9,0-4.8,0.9-5.9,2.6c-1,1.8-1.6,5-1.6,9.7   c0,4.7,0.5,8,1.6,9.7c1.1,1.8,3,2.6,5.9,2.6C132.7,89.4,136.1,89.2,138.5,88.9z M167.2,83.5l3.1,10.8h-6.7l-2.8-10.7   c-0.6-2.1-2-3.1-4-3.1l-6.2,0v13.8h-6.2V59.8c3-0.3,7.2-0.4,12.6-0.4c4.4,0,7.5,0.7,9.3,2.2c1.8,1.5,2.7,4.1,2.7,7.9   c0,2.7-0.5,4.7-1.5,6.1s-2.7,2.3-5,2.6v0.3c1,0.2,1.9,0.8,2.8,1.6C166.3,80.8,166.9,82,167.2,83.5z M161.5,74.1   c0.8-0.8,1.2-2.2,1.2-4.3c0-2.1-0.4-3.5-1.2-4.3c-0.8-0.7-2.3-1.1-4.6-1.1h-6.2v10.9h6.2C159.2,75.3,160.7,74.9,161.5,74.1z    M257.7,59.8h-27.5v5.3h10.5v29.2h6.3V65.1h10.7V59.8z M277.1,61.4l10.4,32.8H281l-2.8-9.8h-12.8l-2.8,9.8h-6.4l10.3-32.8   c0.3-1.1,1.1-1.7,2.3-1.7h6.1C276,59.8,276.8,60.3,277.1,61.4z M276.7,79.4l-3.5-11.9c-0.5-1.8-0.7-2.8-0.8-2.9h-1.3l-0.8,2.9   l-3.4,11.9H276.7z M312.6,89.1h-12c-1.1,0-1.9-0.2-2.3-0.6c-0.4-0.4-0.7-1.2-0.7-2.2V59.8h-6.3v27.4c0,4.8,2.6,7.2,7.8,7.2   c5.9,0,10.4-0.2,13.7-0.4L312.6,89.1z M187.8,73.2c-0.2,0.5-0.7,1.9-1.4,4.2H186c-0.7-2.2-1.2-3.6-1.4-4.2l-6.3-13.4h-6.6   l11.3,22.8v11.8h6.3V82.6l11.3-22.8h-6.5L187.8,73.2z M219.8,75.2l-6.6-2.1c-1.5-0.5-2.5-1-3-1.6c-0.6-0.6-0.8-1.6-0.8-3   c0-1.7,0.4-2.8,1.2-3.3c0.8-0.4,2.3-0.7,4.6-0.7c3,0,6.5,0.1,10.3,0.2l0.4-4.4c-3-0.8-6.6-1.2-10.8-1.2c-4.4,0-7.5,0.6-9.2,1.8   c-1.8,1.2-2.6,3.7-2.6,7.5c0,2.6,0.5,4.8,1.6,6.4s2.8,2.8,5.3,3.6l7,2.2c1.4,0.4,2.4,0.9,2.9,1.5c0.5,0.6,0.8,1.6,0.8,3.1   c0,1.7-0.4,2.9-1.1,3.4c-0.8,0.5-2.3,0.8-4.6,0.8c-1.5,0-5.1-0.1-10.9-0.2l-0.4,4.6c3.7,0.7,7.4,1.1,11.2,1.1c4.6,0,7.8-0.7,9.5-2   c1.8-1.3,2.7-3.9,2.7-7.7c0-2.6-0.5-4.8-1.6-6.4C224.3,77.2,222.5,76,219.8,75.2z M96.4,78l-9.1-34c0-0.1-0.1-0.2-0.3-0.3   l-34.1-9.1c-0.1,0-0.3,0-0.4,0.1l-25,24.9c-0.1,0.1-0.1,0.2-0.1,0.4l9.1,34c0,0.1,0.1,0.2,0.3,0.3l34.1,9.1c0.1,0,0.3,0,0.4-0.1   l25-24.9C96.4,78.2,96.5,78.1,96.4,78z M63,51.3l-9,33.4c0,0.1-0.1,0.1-0.2,0L29.4,60.3c-0.1-0.1,0-0.1,0-0.2l33.5-9   C62.9,51.2,63,51.2,63,51.3z"/>
	<rect class="st0" width="340.4" height="137.7"/>
</g>
</svg>